<svg id="foreign" xmlns="http://www.w3.org/2000/svg" width="512.001" height="512" viewBox="0 0 512.001 512">
  <g id="Group_66" data-name="Group 66">
    <g id="Group_65" data-name="Group 65">
      <path id="Path_174" data-name="Path 174" d="M488.727,0H302.545a23.273,23.273,0,1,0,0,46.546h130L193,286.09A23.271,23.271,0,1,0,225.909,319L465.455,79.458v130a23.273,23.273,0,0,0,46.546,0V23.273A23.275,23.275,0,0,0,488.727,0Z" fill="#4285f4"/>
    </g>
  </g>
  <g id="Group_68" data-name="Group 68">
    <g id="Group_67" data-name="Group 67">
      <path id="Path_175" data-name="Path 175" d="M395.636,232.727A23.273,23.273,0,0,0,372.363,256V465.455H46.545V139.636H256a23.272,23.272,0,1,0,0-46.545H23.273A23.273,23.273,0,0,0,0,116.364V488.728A23.273,23.273,0,0,0,23.273,512H395.637a23.273,23.273,0,0,0,23.273-23.273V256A23.275,23.275,0,0,0,395.636,232.727Z" fill="#4285f4"/>
    </g>
  </g>
</svg>
